<?xml version="1.0" standalone="no"?>
<!DOCTYPE svg PUBLIC "-//W3C//DTD SVG 20010904//EN"
 "http://www.w3.org/TR/2001/REC-SVG-20010904/DTD/svg10.dtd">
<svg version="1.0" xmlns="http://www.w3.org/2000/svg"
 width="260.000000pt" height="260.000000pt" viewBox="0 0 260.000000 260.000000"
 preserveAspectRatio="xMidYMid meet">
<metadata>
Created by potrace 1.14, written by Peter Selinger 2001-2017
</metadata>
<g transform="translate(0.000000,260.000000) scale(0.100000,-0.100000)"
fill="#000000" stroke="none">
<path d="M2520 2563 c-30 -21 -61 -43 -68 -50 -7 -7 -18 -13 -23 -13 -5 0 -33
-17 -62 -38 -29 -21 -104 -71 -167 -112 -63 -41 -116 -78 -118 -82 -2 -4 -8
-8 -13 -8 -14 0 -80 -46 -74 -52 3 -2 -1 -5 -8 -5 -21 0 -67 -35 -60 -46 3 -6
1 -7 -5 -3 -9 5 -82 -33 -102 -54 -33 -35 -53 -37 -338 -36 -179 1 -284 -3
-286 -9 -3 -7 -5 -7 -5 0 -1 6 -93 10 -256 9 -253 -1 -256 -1 -287 23 -18 13
-38 21 -46 18 -7 -2 -11 -1 -8 4 5 7 -405 287 -438 300 -6 2 -13 7 -16 11 -15
19 -121 81 -130 75 -7 -4 -8 -23 -4 -53 4 -26 8 -56 9 -67 4 -47 18 -162 22
-180 5 -26 23 -165 29 -230 2 -27 10 -53 17 -57 9 -6 9 -8 -1 -8 -7 0 -11 -4
-8 -9 3 -5 8 -28 10 -52 4 -42 8 -72 25 -203 5 -32 8 -395 8 -807 1 -722 1
-749 20 -781 13 -22 27 -33 41 -32 11 0 19 -3 16 -7 -3 -5 432 -8 965 -8 l969
0 26 23 c15 12 31 38 36 57 10 35 11 36 58 34 26 -1 53 3 61 9 11 8 13 8 8 -1
-5 -8 5 -11 35 -9 105 7 133 36 130 135 0 37 -1 73 -1 81 -1 8 1 48 2 88 2 40
-1 76 -5 78 -5 3 -5 11 -1 17 10 16 10 297 0 304 -4 2 -4 10 0 16 11 18 10 91
-2 99 -7 5 -7 8 0 8 12 0 14 178 3 196 -4 6 -4 14 0 18 9 10 9 297 -1 303 -4
2 -4 10 0 16 10 17 11 97 1 103 -5 3 -5 11 -1 17 4 7 8 30 9 52 2 52 13 164
19 195 3 14 8 48 10 75 2 28 7 61 10 75 3 14 7 50 10 80 2 30 7 64 9 76 2 12
7 45 11 75 4 30 9 57 12 62 2 4 -2 7 -9 7 -9 0 -10 2 -2 8 7 4 15 34 18 67 3
33 9 83 13 110 9 78 9 118 -2 121 -5 2 -35 -13 -65 -33z"/>
</g>
</svg>
